<svg width="74" height="155" viewBox="0 0 74 155" preserveAspectRatio="none" fill="none" xmlns="http://www.w3.org/2000/svg">
<rect width="74" height="155" rx="5" fill="white"/>
<rect x="4" y="5" width="66" height="145" rx="5" fill="#FF0000"/>
<g clip-path="url(#clip0_11_306)">
<path opacity="0.85" d="M-28.7648 -15.5504L161.349 234.299" stroke="white" stroke-width="2"/>
<path opacity="0.85" d="M-15.7766 240.573L221.761 35.2836" stroke="white" stroke-width="2"/>
<path opacity="0.85" d="M84.5509 -92.0001L274.665 157.849" stroke="white" stroke-width="2"/>
<path opacity="0.85" d="M-99.1279 132.233L138.41 -73.0564" stroke="white" stroke-width="2"/>
<path opacity="0.85" d="M-66.2228 7.62067L123.891 257.47" stroke="white" stroke-width="2"/>
<path opacity="0.85" d="M9.68003 276.517L247.218 71.2275" stroke="white" stroke-width="2"/>
<path opacity="0.85" d="M47.0929 -68.829L237.207 181.02" stroke="white" stroke-width="2"/>
<path opacity="0.85" d="M-73.6713 168.177L163.866 -37.1125" stroke="white" stroke-width="2"/>
<path opacity="0.85" d="M-101.784 39.1227L88.3297 288.972" stroke="white" stroke-width="2"/>
<path opacity="0.85" d="M43.3334 310.05L280.871 104.76" stroke="white" stroke-width="2"/>
<path opacity="0.85" d="M11.5313 -37.327L201.645 212.522" stroke="white" stroke-width="2"/>
<path opacity="0.85" d="M-40.018 201.71L197.52 -3.5797" stroke="white" stroke-width="2"/>
<path opacity="0.85" d="M-7.06307 -26.7324L183.051 223.117" stroke="white" stroke-width="2"/>
<path opacity="0.85" d="M-28.287 219.609L209.251 14.3196" stroke="white" stroke-width="2"/>
<path opacity="0.85" d="M-111.638 111.269L125.899 -94.0204" stroke="white" stroke-width="2"/>
<path opacity="0.85" d="M-44.5211 -3.56126L145.593 246.288" stroke="white" stroke-width="2"/>
<path opacity="0.85" d="M-2.83041 255.553L234.707 50.2635" stroke="white" stroke-width="2"/>
<path opacity="0.85" d="M68.7947 -80.0109L258.909 169.838" stroke="white" stroke-width="2"/>
<path opacity="0.85" d="M-86.1817 147.213L151.356 -58.0765" stroke="white" stroke-width="2"/>
<path opacity="0.85" d="M-80.0826 27.9407L110.031 277.79" stroke="white" stroke-width="2"/>
<path opacity="0.85" d="M30.823 289.086L268.361 83.7963" stroke="white" stroke-width="2"/>
<path opacity="0.85" d="M33.2331 -48.509L223.347 201.34" stroke="white" stroke-width="2"/>
<path opacity="0.85" d="M-52.5283 180.746L185.009 -24.5437" stroke="white" stroke-width="2"/>
<path opacity="0.85" d="M-36.7775 -8.56494L153.337 241.284" stroke="white" stroke-width="2"/>
<path opacity="0.85" d="M-8.30611 248.136L229.232 42.8462" stroke="white" stroke-width="2"/>
<path opacity="0.85" d="M76.5382 -85.0146L266.652 164.835" stroke="white" stroke-width="2"/>
<path opacity="0.85" d="M-91.6575 139.796L145.88 -65.4938" stroke="white" stroke-width="2"/>
<path opacity="0.85" d="M-74.2354 14.6062L115.879 264.455" stroke="white" stroke-width="2"/>
<path opacity="0.85" d="M17.1504 284.08L254.688 78.7901" stroke="white" stroke-width="2"/>
<path opacity="0.85" d="M39.0802 -61.8435L229.194 188.006" stroke="white" stroke-width="2"/>
<path opacity="0.85" d="M-66.2008 175.74L171.337 -29.55" stroke="white" stroke-width="2"/>
<path opacity="0.85" d="M-109.797 46.1082L80.317 295.957" stroke="white" stroke-width="2"/>
<path opacity="0.85" d="M50.8038 317.613L288.342 112.323" stroke="white" stroke-width="2"/>
<path opacity="0.85" d="M3.51872 -30.3415L193.633 219.508" stroke="white" stroke-width="2"/>
<path opacity="0.85" d="M-32.5474 209.273L204.99 3.98286" stroke="white" stroke-width="2"/>
<path opacity="0.85" d="M-15.0758 -19.7469L175.038 230.102" stroke="white" stroke-width="2"/>
<path opacity="0.85" d="M-20.8166 227.172L216.721 21.8822" stroke="white" stroke-width="2"/>
<path opacity="0.85" d="M-104.168 118.832L133.37 -86.4579" stroke="white" stroke-width="2"/>
<path opacity="0.85" d="M-52.5337 3.42423L137.58 253.274" stroke="white" stroke-width="2"/>
<path opacity="0.85" d="M4.63999 263.116L242.178 57.8261" stroke="white" stroke-width="2"/>
<path opacity="0.85" d="M60.782 -73.0255L250.896 176.824" stroke="white" stroke-width="2"/>
<path opacity="0.85" d="M-78.7113 154.776L158.826 -50.514" stroke="white" stroke-width="2"/>
<path opacity="0.85" d="M-88.0953 34.9262L102.019 284.776" stroke="white" stroke-width="2"/>
<path opacity="0.85" d="M38.2934 296.649L275.831 91.3589" stroke="white" stroke-width="2"/>
<path opacity="0.85" d="M25.2204 -41.5235L215.334 208.326" stroke="white" stroke-width="2"/>
<path opacity="0.85" d="M-45.0579 188.308L192.48 -16.9811" stroke="white" stroke-width="2"/>
<path opacity="0.85" d="M-30.5629 -9.73953L154.413 233.357" stroke="white"/>
<path opacity="0.85" d="M-9.86508 242.006L221.253 42.2652" stroke="white"/>
<path opacity="0.85" d="M82.7527 -86.1892L267.729 156.907" stroke="white"/>
<path opacity="0.85" d="M-93.2164 133.666L137.901 -66.0749" stroke="white"/>
<path opacity="0.85" d="M-68.0209 13.4316L116.955 256.528" stroke="white"/>
<path opacity="0.85" d="M15.5915 277.95L246.709 78.209" stroke="white"/>
<path opacity="0.85" d="M45.2948 -63.0181L230.271 180.079" stroke="white"/>
<path opacity="0.85" d="M-67.7598 169.61L163.358 -30.131" stroke="white"/>
<path opacity="0.85" d="M-103.582 44.9336L81.3933 288.03" stroke="white"/>
<path opacity="0.85" d="M49.2449 311.483L280.363 111.742" stroke="white"/>
<path opacity="0.85" d="M9.7332 -31.5161L194.709 211.581" stroke="white"/>
<path opacity="0.85" d="M-34.1064 203.143L197.011 3.40184" stroke="white"/>
<path opacity="0.85" d="M-8.86122 -20.9215L176.115 222.175" stroke="white"/>
<path opacity="0.85" d="M-22.3755 221.042L208.742 21.3011" stroke="white"/>
<path opacity="0.85" d="M-105.727 112.702L125.391 -87.0389" stroke="white"/>
<path opacity="0.85" d="M-46.3192 2.24965L138.657 245.346" stroke="white"/>
<path opacity="0.85" d="M3.08115 256.986L234.199 57.245" stroke="white"/>
<path opacity="0.85" d="M66.9965 -74.2L251.972 168.897" stroke="white"/>
<path opacity="0.85" d="M-80.2702 148.646L150.848 -51.095" stroke="white"/>
<path opacity="0.85" d="M-81.8808 33.7516L103.095 276.848" stroke="white"/>
<path opacity="0.85" d="M36.7345 290.519L267.852 90.7779" stroke="white"/>
<path opacity="0.85" d="M31.4349 -42.698L216.411 200.399" stroke="white"/>
<path opacity="0.85" d="M-46.6169 182.179L184.501 -17.5622" stroke="white"/>
<path opacity="0.85" d="M-38.5756 -2.75403L146.4 240.343" stroke="white"/>
<path opacity="0.85" d="M-2.39462 249.569L228.723 49.8277" stroke="white"/>
<path opacity="0.85" d="M74.7401 -79.2037L259.716 163.893" stroke="white"/>
<path opacity="0.85" d="M-85.7459 141.229L145.372 -58.5123" stroke="white"/>
<path opacity="0.85" d="M-76.0336 20.4171L108.942 263.514" stroke="white"/>
<path opacity="0.85" d="M23.062 285.513L254.18 85.7716" stroke="white"/>
<path opacity="0.85" d="M37.2821 -56.0326L222.258 187.064" stroke="white"/>
<path opacity="0.85" d="M-60.2894 177.173L170.828 -22.5685" stroke="white"/>
<path opacity="0.85" d="M-111.595 51.9191L73.3806 295.016" stroke="white"/>
<path opacity="0.85" d="M56.7153 319.046L287.833 119.304" stroke="white"/>
<path opacity="0.85" d="M1.72057 -24.5306L186.696 218.566" stroke="white"/>
<path opacity="0.85" d="M-26.636 210.706L204.482 10.9644" stroke="white"/>
<path opacity="0.85" d="M-16.8739 -13.936L168.102 229.161" stroke="white"/>
<path opacity="0.85" d="M-14.905 228.605L216.213 28.8637" stroke="white"/>
<path opacity="0.85" d="M96.4418 -90.3857L281.418 152.711" stroke="white"/>
<path opacity="0.85" d="M-98.2563 120.265L132.861 -79.4763" stroke="white"/>
<path opacity="0.85" d="M-54.3319 9.23514L130.644 252.332" stroke="white"/>
<path opacity="0.85" d="M10.5516 264.549L241.669 64.8076" stroke="white"/>
<path opacity="0.85" d="M58.9838 -67.2145L243.96 175.882" stroke="white"/>
<path opacity="0.85" d="M-72.7997 156.209L158.318 -43.5324" stroke="white"/>
<path opacity="0.85" d="M-89.8934 40.7371L95.0823 283.834" stroke="white"/>
<path opacity="0.85" d="M44.2049 298.082L275.323 98.3404" stroke="white"/>
<path opacity="0.85" d="M23.4222 -35.7126L208.398 207.384" stroke="white"/>
<path opacity="0.85" d="M-39.1463 189.742L191.971 -9.99963" stroke="white"/>
<path opacity="0.85" d="M-23.5412 -16.8596L168.286 235.241" stroke="white"/>
<path opacity="0.85" d="M-17.4081 235.441L222.27 28.3021" stroke="white"/>
<path opacity="0.85" d="M89.7745 -93.3092L281.601 158.791" stroke="white"/>
<path opacity="0.85" d="M-100.759 127.101L138.918 -80.0379" stroke="white"/>
<path opacity="0.85" d="M-60.9992 6.31155L130.828 258.412" stroke="white"/>
<path opacity="0.85" d="M8.0485 271.385L247.726 64.246" stroke="white"/>
<path opacity="0.85" d="M52.3166 -70.1381L244.143 181.962" stroke="white"/>
<path opacity="0.85" d="M-75.3029 163.045L164.375 -44.094" stroke="white"/>
<path opacity="0.85" d="M-96.5607 37.8135L95.266 289.914" stroke="white"/>
<path opacity="0.85" d="M41.7018 304.918L281.38 97.7788" stroke="white"/>
<path opacity="0.85" d="M16.755 -38.6361L208.582 213.464" stroke="white"/>
<path opacity="0.85" d="M-41.6495 196.578L198.028 -10.5612" stroke="white"/>
<path opacity="0.85" d="M-1.83945 -28.0415L189.987 224.059" stroke="white"/>
<path opacity="0.85" d="M-29.9186 214.477L209.759 7.33809" stroke="white"/>
<path opacity="0.85" d="M-113.27 106.137L126.408 -101.002" stroke="white"/>
<path opacity="0.85" d="M-39.2975 -4.8704L152.529 247.23" stroke="white"/>
<path opacity="0.85" d="M-4.46194 250.421L235.216 43.282" stroke="white"/>
<path opacity="0.85" d="M74.0183 -81.3201L265.845 170.78" stroke="white"/>
<path opacity="0.85" d="M-87.8133 142.081L151.864 -65.058" stroke="white"/>
<path opacity="0.85" d="M-74.859 26.6316L116.968 278.732" stroke="white"/>
<path opacity="0.85" d="M29.1914 283.954L268.869 76.8148" stroke="white"/>
<path opacity="0.85" d="M38.4567 -49.8181L230.283 202.282" stroke="white"/>
<path opacity="0.85" d="M-54.1599 175.614L185.518 -31.5252" stroke="white"/>
<path opacity="0.85" d="M-31.5539 -9.87407L160.273 242.226" stroke="white"/>
<path opacity="0.85" d="M-9.9377 243.004L229.74 35.8647" stroke="white"/>
<path opacity="0.85" d="M81.7619 -86.3237L273.589 165.776" stroke="white"/>
<path opacity="0.85" d="M-93.289 134.664L146.389 -72.4753" stroke="white"/>
<path opacity="0.85" d="M-69.0118 13.297L122.815 265.397" stroke="white"/>
<path opacity="0.85" d="M15.5188 278.948L255.197 71.8085" stroke="white"/>
<path opacity="0.85" d="M44.3039 -63.1526L236.131 188.948" stroke="white"/>
<path opacity="0.85" d="M-67.8324 170.608L171.845 -36.5315" stroke="white"/>
<path opacity="0.85" d="M-104.573 44.799L87.2533 296.899" stroke="white"/>
<path opacity="0.85" d="M49.1722 312.48L288.85 105.341" stroke="white"/>
<path opacity="0.85" d="M8.74228 -31.6506L200.569 220.45" stroke="white"/>
<path opacity="0.85" d="M-34.179 204.14L205.499 -2.99864" stroke="white"/>
<path opacity="0.85" d="M-9.85214 -21.056L181.975 231.044" stroke="white"/>
<path opacity="0.85" d="M-22.4481 222.04L217.23 14.9007" stroke="white"/>
<path opacity="0.85" d="M-105.799 113.7L133.878 -93.4394" stroke="white"/>
<path opacity="0.85" d="M-47.3101 2.11511L144.517 254.215" stroke="white"/>
<path opacity="0.85" d="M3.00852 257.984L242.686 50.8445" stroke="white"/>
<path opacity="0.85" d="M66.0056 -74.3346L257.832 177.766" stroke="white"/>
<path opacity="0.85" d="M-80.3429 149.644L159.335 -57.4955" stroke="white"/>
<path opacity="0.85" d="M-82.8717 33.6171L108.955 285.717" stroke="white"/>
<path opacity="0.85" d="M36.6618 291.516L276.34 84.3774" stroke="white"/>
<path opacity="0.85" d="M30.444 -42.8326L222.271 209.268" stroke="white"/>
<path opacity="0.85" d="M-46.6895 183.176L192.988 -23.9626" stroke="white"/>
</g>
<rect x="7.5" y="9.5" width="59" height="136" rx="4.5" stroke="white"/>
<rect x="36.9279" y="54.4142" width="33.4258" height="33.4258" transform="rotate(44.7053 36.9279 54.4142)" fill="#FF0000" stroke="white" stroke-width="2"/>
<path d="M29.959 70.8365H29.879V78.4565C29.879 79.0699 30.1123 79.5699 30.579 79.9565C31.059 80.3432 31.6657 80.5365 32.399 80.5365V81.1765H26.559V80.5365C27.2923 80.5365 27.8923 80.3432 28.359 79.9565C28.839 79.5699 29.079 79.0699 29.079 78.4565V69.9165C29.079 69.7699 29.0657 69.6632 29.039 69.5965C29.0123 69.5299 28.9523 69.4299 28.859 69.2965L28.059 68.0965C27.9257 67.8965 27.779 67.7632 27.619 67.6965C27.459 67.6165 27.2257 67.5765 26.919 67.5765H26.559V66.9365H30.999L37.399 76.0765V69.6565C37.399 69.0432 37.159 68.5432 36.679 68.1565C36.2123 67.7699 35.6123 67.5765 34.879 67.5765V66.9365H40.719V67.5765C39.9857 67.5765 39.379 67.7699 38.899 68.1565C38.4323 68.5432 38.199 69.0432 38.199 69.6565V81.5365H37.439L29.959 70.8365Z" fill="white"/>
<path d="M42.4243 91.0442C41.8377 91.0566 41.3094 90.9811 40.8391 90.8176C40.3692 90.6675 39.9783 90.469 39.6663 90.2222C39.355 90.002 39.1318 89.8533 38.9968 89.7762C38.8615 89.6857 38.7339 89.6417 38.6139 89.6442C38.334 89.6501 38.1655 89.8804 38.1084 90.335L38.0219 90.977L37.402 90.99L37.1489 84.674L37.7887 84.6605C37.9967 85.6697 38.3301 86.6162 38.7888 87.5001C39.2608 88.3836 39.8159 89.0921 40.4539 89.6254C41.1053 90.1585 41.7976 90.4173 42.5308 90.4019C43.5839 90.3797 44.2988 90.1312 44.6755 89.6565C45.0523 89.1818 45.2345 88.6512 45.2221 88.0646C45.2148 87.718 45.0817 87.4141 44.8228 87.1528C44.577 86.878 44.2175 86.5921 43.7445 86.2954L39.4073 83.6262C38.7724 83.2395 38.2286 82.7508 37.7761 82.1602C37.3369 81.5693 37.1085 80.8606 37.0911 80.0342C37.0639 78.7411 37.4169 77.7735 38.1502 77.1312C38.8965 76.4753 39.8229 76.1357 40.9294 76.1124C41.8758 76.0925 42.8293 76.4058 43.7898 77.0524C44.1014 77.2859 44.3439 77.4008 44.5172 77.3971C44.7572 77.3921 44.9006 77.2357 44.9474 76.928L45.056 76.3855L45.6959 76.3721L46.0054 81.5667L45.3655 81.5802C45.0929 80.6657 44.7221 79.84 44.2531 79.1031C43.7841 78.3661 43.2452 77.7907 42.6364 77.3767C42.0406 76.9492 41.4227 76.7422 40.7829 76.7557C40.0764 76.7705 39.5528 76.9216 39.2121 77.2088C38.8847 77.4958 38.7269 77.9192 38.7387 78.4791C38.7547 79.2389 39.3641 79.9929 40.5668 80.7411L44.9244 83.4299C45.4785 83.7783 45.9222 84.2624 46.2553 84.8822C46.6018 85.5017 46.7822 86.1513 46.7965 86.8312C46.8111 87.5244 46.6584 88.1877 46.3383 88.8213C46.0182 89.4548 45.5292 89.9786 44.8711 90.3926C44.213 90.8065 43.3974 91.0237 42.4243 91.0442Z" fill="white"/>
<defs>
<clipPath id="clip0_11_306">
<rect x="7" y="9" width="60" height="137" rx="5" fill="white"/>
</clipPath>
</defs>
</svg>
