<svg width="179" height="224" viewBox="0 0 179 224" fill="none" preserveAspectRatio="none" xmlns="http://www.w3.org/2000/svg">
<g id="Get to know Nick Card">
<rect width="179" height="223.625" rx="5" fill="white"/>
<g id="Cardback">
<rect x="5" y="5" width="169" height="213.625" rx="5" fill="#FF0000"/>
<g id="Card Boarder">
<g clip-path="url(#clip0_1_52)">
<g id="Card Background Texture">
<path id="Center Line" opacity="0.95" d="M-24.7648 -13.5504L165.349 236.299" stroke="white" stroke-width="2"/>
<path id="Center Line_2" opacity="0.95" d="M-11.7766 242.573L225.761 37.2836" stroke="white" stroke-width="2"/>
<path id="Center Line_3" opacity="0.95" d="M88.5509 -90.0001L278.665 159.849" stroke="white" stroke-width="2"/>
<path id="Center Line_4" opacity="0.95" d="M-95.1279 134.233L142.41 -71.0564" stroke="white" stroke-width="2"/>
<path id="Center Line_5" opacity="0.95" d="M-62.2228 9.62067L127.891 259.47" stroke="white" stroke-width="2"/>
<path id="Center Line_6" opacity="0.95" d="M13.68 278.517L251.218 73.2275" stroke="white" stroke-width="2"/>
<path id="Center Line_7" opacity="0.95" d="M51.0929 -66.829L241.207 183.02" stroke="white" stroke-width="2"/>
<path id="Center Line_8" opacity="0.95" d="M-69.6713 170.177L167.866 -35.1125" stroke="white" stroke-width="2"/>
<path id="Center Line_9" opacity="0.95" d="M-97.7843 41.1227L92.3297 290.972" stroke="white" stroke-width="2"/>
<path id="Center Line_10" opacity="0.95" d="M47.3334 312.05L284.871 106.76" stroke="white" stroke-width="2"/>
<path id="Center Line_11" opacity="0.95" d="M15.5313 -35.327L205.645 214.522" stroke="white" stroke-width="2"/>
<path id="Center Line_12" opacity="0.95" d="M-36.018 203.71L201.52 -1.5797" stroke="white" stroke-width="2"/>
<path id="Center Line_13" opacity="0.95" d="M-3.06307 -24.7324L187.051 225.117" stroke="white" stroke-width="2"/>
<path id="Center Line_14" opacity="0.95" d="M-24.287 221.609L213.251 16.3196" stroke="white" stroke-width="2"/>
<path id="Center Line_15" opacity="0.95" d="M110.253 -101.182L300.367 148.667" stroke="white" stroke-width="2"/>
<path id="Center Line_16" opacity="0.95" d="M-107.638 113.269L129.899 -92.0204" stroke="white" stroke-width="2"/>
<path id="Center Line_17" opacity="0.95" d="M-40.521 -1.56126L149.593 248.288" stroke="white" stroke-width="2"/>
<path id="Center Line_18" opacity="0.95" d="M1.16959 257.553L238.707 52.2635" stroke="white" stroke-width="2"/>
<path id="Center Line_19" opacity="0.95" d="M72.7947 -78.0109L262.909 171.838" stroke="white" stroke-width="2"/>
<path id="Center Line_20" opacity="0.95" d="M-82.1817 149.213L155.356 -56.0765" stroke="white" stroke-width="2"/>
<path id="Center Line_21" opacity="0.95" d="M-76.0826 29.9407L114.031 279.79" stroke="white" stroke-width="2"/>
<path id="Center Line_22" opacity="0.95" d="M34.823 291.086L272.361 85.7963" stroke="white" stroke-width="2"/>
<path id="Center Line_23" opacity="0.95" d="M37.2331 -46.509L227.347 203.34" stroke="white" stroke-width="2"/>
<path id="Center Line_24" opacity="0.95" d="M-48.5283 182.746L189.009 -22.5437" stroke="white" stroke-width="2"/>
<path id="Center Line_25" opacity="0.95" d="M-32.7775 -6.56494L157.337 243.284" stroke="white" stroke-width="2"/>
<path id="Center Line_26" opacity="0.95" d="M-4.30611 250.136L233.232 44.8462" stroke="white" stroke-width="2"/>
<path id="Center Line_27" opacity="0.95" d="M80.5382 -83.0146L270.652 166.835" stroke="white" stroke-width="2"/>
<path id="Center Line_28" opacity="0.95" d="M-87.6575 141.796L149.88 -63.4938" stroke="white" stroke-width="2"/>
<path id="Center Line_29" opacity="0.95" d="M-70.2354 16.6062L119.879 266.455" stroke="white" stroke-width="2"/>
<path id="Center Line_30" opacity="0.95" d="M21.1505 286.08L258.688 80.7901" stroke="white" stroke-width="2"/>
<path id="Center Line_31" opacity="0.95" d="M43.0802 -59.8435L233.194 190.006" stroke="white" stroke-width="2"/>
<path id="Center Line_32" opacity="0.95" d="M-62.2008 177.74L175.337 -27.55" stroke="white" stroke-width="2"/>
<path id="Center Line_33" opacity="0.95" d="M-105.797 48.1082L84.317 297.957" stroke="white" stroke-width="2"/>
<path id="Center Line_34" opacity="0.95" d="M54.8038 319.613L292.342 114.323" stroke="white" stroke-width="2"/>
<path id="Center Line_35" opacity="0.95" d="M7.51872 -28.3415L197.633 221.508" stroke="white" stroke-width="2"/>
<path id="Center Line_36" opacity="0.95" d="M-28.5474 211.273L208.99 5.98286" stroke="white" stroke-width="2"/>
<path id="Center Line_37" opacity="0.95" d="M-11.0758 -17.7469L179.038 232.102" stroke="white" stroke-width="2"/>
<path id="Center Line_38" opacity="0.95" d="M-16.8166 229.172L220.721 23.8822" stroke="white" stroke-width="2"/>
<path id="Center Line_39" opacity="0.95" d="M102.24 -94.1966L292.354 155.653" stroke="white" stroke-width="2"/>
<path id="Center Line_40" opacity="0.95" d="M-100.168 120.832L137.37 -84.4578" stroke="white" stroke-width="2"/>
<path id="Center Line_41" opacity="0.95" d="M-48.5337 5.42423L141.58 255.274" stroke="white" stroke-width="2"/>
<path id="Center Line_42" opacity="0.95" d="M8.64002 265.116L246.178 59.8261" stroke="white" stroke-width="2"/>
<path id="Center Line_43" opacity="0.95" d="M64.782 -71.0255L254.896 178.824" stroke="white" stroke-width="2"/>
<path id="Center Line_44" opacity="0.95" d="M-74.7113 156.776L162.826 -48.514" stroke="white" stroke-width="2"/>
<path id="Center Line_45" opacity="0.95" d="M-84.0953 36.9262L106.019 286.776" stroke="white" stroke-width="2"/>
<path id="Center Line_46" opacity="0.95" d="M42.2934 298.649L279.831 93.3589" stroke="white" stroke-width="2"/>
<path id="Center Line_47" opacity="0.95" d="M29.2204 -39.5235L219.334 210.326" stroke="white" stroke-width="2"/>
<path id="Center Line_48" opacity="0.95" d="M-41.0579 190.308L196.48 -14.9811" stroke="white" stroke-width="2"/>
<path id="Right Outside Line" opacity="0.85" d="M-26.5629 -7.73953L158.413 235.357" stroke="white"/>
<path id="Right Outside Line_2" opacity="0.85" d="M-5.86508 244.006L225.253 44.2652" stroke="white"/>
<path id="Right Outside Line_3" opacity="0.85" d="M86.7527 -84.1892L271.729 158.907" stroke="white"/>
<path id="Right Outside Line_4" opacity="0.85" d="M-89.2164 135.666L141.901 -64.0749" stroke="white"/>
<path id="Right Outside Line_5" opacity="0.85" d="M-64.0209 15.4316L120.955 258.528" stroke="white"/>
<path id="Right Outside Line_6" opacity="0.85" d="M19.5916 279.95L250.709 80.209" stroke="white"/>
<path id="Right Outside Line_7" opacity="0.85" d="M49.2948 -61.0181L234.271 182.079" stroke="white"/>
<path id="Right Outside Line_8" opacity="0.85" d="M-63.7598 171.61L167.358 -28.131" stroke="white"/>
<path id="Right Outside Line_9" opacity="0.85" d="M-99.5825 46.9336L85.3933 290.03" stroke="white"/>
<path id="Right Outside Line_10" opacity="0.85" d="M53.2449 313.483L284.363 113.742" stroke="white"/>
<path id="Right Outside Line_11" opacity="0.85" d="M13.7332 -29.5161L198.709 213.581" stroke="white"/>
<path id="Right Outside Line_12" opacity="0.85" d="M-30.1064 205.143L201.011 5.40184" stroke="white"/>
<path id="Right Outside Line_13" opacity="0.85" d="M-4.86122 -18.9215L180.115 224.175" stroke="white"/>
<path id="Right Outside Line_14" opacity="0.85" d="M-18.3755 223.042L212.742 23.3011" stroke="white"/>
<path id="Right Outside Line_15" opacity="0.85" d="M108.454 -95.3711L293.43 147.725" stroke="white"/>
<path id="Right Outside Line_16" opacity="0.85" d="M-101.727 114.702L129.391 -85.0389" stroke="white"/>
<path id="Right Outside Line_17" opacity="0.85" d="M-42.3192 4.24965L142.657 247.346" stroke="white"/>
<path id="Right Outside Line_18" opacity="0.85" d="M7.08112 258.986L238.199 59.245" stroke="white"/>
<path id="Right Outside Line_19" opacity="0.85" d="M70.9965 -72.2L255.972 170.897" stroke="white"/>
<path id="Right Outside Line_20" opacity="0.85" d="M-76.2702 150.646L154.848 -49.095" stroke="white"/>
<path id="Right Outside Line_21" opacity="0.85" d="M-77.8808 35.7516L107.095 278.848" stroke="white"/>
<path id="Right Outside Line_22" opacity="0.85" d="M40.7345 292.519L271.852 92.7779" stroke="white"/>
<path id="Right Outside Line_23" opacity="0.85" d="M35.4349 -40.698L220.411 202.399" stroke="white"/>
<path id="Right Outside Line_24" opacity="0.85" d="M-42.6169 184.179L188.501 -15.5622" stroke="white"/>
<path id="Right Outside Line_25" opacity="0.85" d="M-34.5756 -0.75403L150.4 242.343" stroke="white"/>
<path id="Right Outside Line_26" opacity="0.85" d="M1.60538 251.569L232.723 51.8277" stroke="white"/>
<path id="Right Outside Line_27" opacity="0.85" d="M78.7401 -77.2037L263.716 165.893" stroke="white"/>
<path id="Right Outside Line_28" opacity="0.85" d="M-81.7459 143.229L149.372 -56.5123" stroke="white"/>
<path id="Right Outside Line_29" opacity="0.85" d="M-72.0336 22.4171L112.942 265.514" stroke="white"/>
<path id="Right Outside Line_30" opacity="0.85" d="M27.062 287.513L258.18 87.7716" stroke="white"/>
<path id="Right Outside Line_31" opacity="0.85" d="M41.2821 -54.0326L226.258 189.064" stroke="white"/>
<path id="Right Outside Line_32" opacity="0.85" d="M-56.2894 179.173L174.828 -20.5685" stroke="white"/>
<path id="Right Outside Line_33" opacity="0.85" d="M-107.595 53.9191L77.3806 297.016" stroke="white"/>
<path id="Right Outside Line_34" opacity="0.85" d="M60.7153 321.046L291.833 121.304" stroke="white"/>
<path id="Right Outside Line_35" opacity="0.85" d="M5.72057 -22.5306L190.696 220.566" stroke="white"/>
<path id="Right Outside Line_36" opacity="0.85" d="M-22.636 212.706L208.482 12.9644" stroke="white"/>
<path id="Right Outside Line_37" opacity="0.85" d="M-12.8739 -11.936L172.102 231.161" stroke="white"/>
<path id="Right Outside Line_38" opacity="0.85" d="M-10.905 230.605L220.213 30.8637" stroke="white"/>
<path id="Right Outside Line_39" opacity="0.85" d="M100.442 -88.3857L285.418 154.711" stroke="white"/>
<path id="Right Outside Line_40" opacity="0.85" d="M-94.2563 122.265L136.861 -77.4763" stroke="white"/>
<path id="Right Outside Line_41" opacity="0.85" d="M-50.3319 11.2351L134.644 254.332" stroke="white"/>
<path id="Right Outside Line_42" opacity="0.85" d="M14.5516 266.549L245.669 66.8076" stroke="white"/>
<path id="Right Outside Line_43" opacity="0.85" d="M62.9838 -65.2145L247.96 177.882" stroke="white"/>
<path id="Right Outside Line_44" opacity="0.85" d="M-68.7997 158.209L162.318 -41.5324" stroke="white"/>
<path id="Right Outside Line_45" opacity="0.85" d="M-85.8934 42.7371L99.0823 285.834" stroke="white"/>
<path id="Right Outside Line_46" opacity="0.85" d="M48.205 300.082L279.323 100.34" stroke="white"/>
<path id="Right Outside Line_47" opacity="0.85" d="M27.4222 -33.7126L212.398 209.384" stroke="white"/>
<path id="Right Outside Line_48" opacity="0.85" d="M-35.1463 191.742L195.971 -7.99963" stroke="white"/>
<path id="Left Outside Lind" opacity="0.85" d="M-19.5412 -14.8596L172.286 237.241" stroke="white"/>
<path id="Left Outside Lind_2" opacity="0.85" d="M-13.4081 237.441L226.27 30.3021" stroke="white"/>
<path id="Left Outside Lind_3" opacity="0.85" d="M93.7745 -91.3092L285.601 160.791" stroke="white"/>
<path id="Left Outside Lind_4" opacity="0.85" d="M-96.7595 129.101L142.918 -78.0379" stroke="white"/>
<path id="Left Outside Lind_5" opacity="0.85" d="M-56.9991 8.31155L134.828 260.412" stroke="white"/>
<path id="Left Outside Lind_6" opacity="0.85" d="M12.0485 273.385L251.726 66.246" stroke="white"/>
<path id="Left Outside Lind_7" opacity="0.85" d="M56.3166 -68.1381L248.143 183.962" stroke="white"/>
<path id="Left Outside Lind_8" opacity="0.85" d="M-71.3029 165.045L168.375 -42.094" stroke="white"/>
<path id="Left Outside Lind_9" opacity="0.85" d="M-92.5607 39.8135L99.266 291.914" stroke="white"/>
<path id="Left Outside Lind_10" opacity="0.85" d="M45.7018 306.918L285.38 99.7788" stroke="white"/>
<path id="Left Outside Lind_11" opacity="0.85" d="M20.755 -36.6361L212.582 215.464" stroke="white"/>
<path id="Left Outside Lind_12" opacity="0.85" d="M-37.6495 198.578L202.028 -8.5612" stroke="white"/>
<path id="Left Outside Lind_13" opacity="0.85" d="M2.16055 -26.0415L193.987 226.059" stroke="white"/>
<path id="Left Outside Lind_14" opacity="0.85" d="M-25.9186 216.477L213.759 9.33809" stroke="white"/>
<path id="Left Outside Lind_15" opacity="0.85" d="M115.476 -102.491L307.303 149.609" stroke="white"/>
<path id="Left Outside Lind_16" opacity="0.85" d="M-109.27 108.137L130.408 -99.0019" stroke="white"/>
<path id="Left Outside Lind_17" opacity="0.85" d="M-35.2975 -2.8704L156.529 249.23" stroke="white"/>
<path id="Left Outside Lind_18" opacity="0.85" d="M-0.461935 252.421L239.216 45.282" stroke="white"/>
<path id="Left Outside Lind_19" opacity="0.85" d="M78.0183 -79.3201L269.845 172.78" stroke="white"/>
<path id="Left Outside Lind_20" opacity="0.85" d="M-83.8133 144.081L155.864 -63.058" stroke="white"/>
<path id="Left Outside Lind_21" opacity="0.85" d="M-70.859 28.6316L120.968 280.732" stroke="white"/>
<path id="Left Outside Lind_22" opacity="0.85" d="M33.1914 285.954L272.869 78.8148" stroke="white"/>
<path id="Left Outside Lind_23" opacity="0.85" d="M42.4567 -47.8181L234.283 204.282" stroke="white"/>
<path id="Left Outside Lind_24" opacity="0.85" d="M-50.1599 177.614L189.518 -29.5252" stroke="white"/>
<path id="Left Outside Lind_25" opacity="0.85" d="M-27.5539 -7.87407L164.273 244.226" stroke="white"/>
<path id="Left Outside Lind_26" opacity="0.85" d="M-5.9377 245.004L233.74 37.8647" stroke="white"/>
<path id="Left Outside Lind_27" opacity="0.85" d="M85.7619 -84.3237L277.589 167.776" stroke="white"/>
<path id="Left Outside Lind_28" opacity="0.85" d="M-89.289 136.664L150.389 -70.4753" stroke="white"/>
<path id="Left Outside Lind_29" opacity="0.85" d="M-65.0118 15.297L126.815 267.397" stroke="white"/>
<path id="Left Outside Lind_30" opacity="0.85" d="M19.5189 280.948L259.197 73.8085" stroke="white"/>
<path id="Left Outside Lind_31" opacity="0.85" d="M48.3039 -61.1526L240.131 190.948" stroke="white"/>
<path id="Left Outside Lind_32" opacity="0.85" d="M-63.8324 172.608L175.845 -34.5315" stroke="white"/>
<path id="Left Outside Lind_33" opacity="0.85" d="M-100.573 46.799L91.2533 298.899" stroke="white"/>
<path id="Left Outside Lind_34" opacity="0.85" d="M53.1723 314.48L292.85 107.341" stroke="white"/>
<path id="Left Outside Lind_35" opacity="0.85" d="M12.7423 -29.6506L204.569 222.45" stroke="white"/>
<path id="Left Outside Lind_36" opacity="0.85" d="M-30.179 206.14L209.499 -0.998636" stroke="white"/>
<path id="Left Outside Lind_37" opacity="0.85" d="M-5.85214 -19.056L185.975 233.044" stroke="white"/>
<path id="Left Outside Lind_38" opacity="0.85" d="M-18.4481 224.04L221.23 16.9007" stroke="white"/>
<path id="Left Outside Lind_39" opacity="0.85" d="M107.464 -95.5057L299.29 156.595" stroke="white"/>
<path id="Left Outside Lind_40" opacity="0.85" d="M-101.799 115.7L137.878 -91.4394" stroke="white"/>
<path id="Left Outside Lind_41" opacity="0.85" d="M-43.3101 4.11511L148.517 256.215" stroke="white"/>
<path id="Left Outside Lind_42" opacity="0.85" d="M7.00849 259.984L246.686 52.8445" stroke="white"/>
<path id="Left Outside Lind_43" opacity="0.85" d="M70.0056 -72.3346L261.832 179.766" stroke="white"/>
<path id="Left Outside Lind_44" opacity="0.85" d="M-76.3428 151.644L163.335 -55.4955" stroke="white"/>
<path id="Left Outside Lind_45" opacity="0.85" d="M-78.8717 35.6171L112.955 287.717" stroke="white"/>
<path id="Left Outside Lind_46" opacity="0.85" d="M40.6618 293.516L280.34 86.3774" stroke="white"/>
<path id="Left Outside Lind_47" opacity="0.85" d="M34.444 -40.8326L226.271 211.268" stroke="white"/>
<path id="Left Outside Lind_48" opacity="0.85" d="M-42.6895 185.176L196.988 -21.9626" stroke="white"/>
</g>
</g>
<rect x="12" y="12" width="156" height="200" rx="4" stroke="white" preserveAspectRatio='200px' stroke-width="2"/>
</g>
</g>
<g id="Initials">
<rect id="Initials border" x="88.6506" y="59.0611" width="68.8516" height="68.8516" transform="rotate(44.7053 88.6506 59.0611)" fill="#FF0000" stroke="white" stroke-width="2"/>
<path id="N" d="M74.2 88.88H74.04V108.52C74.04 109.507 74.2667 110.293 74.72 110.88C75.2 111.44 75.8133 111.72 76.56 111.72H78V113H68.48V111.72H69.92C70.6933 111.72 71.3067 111.44 71.76 110.88C72.2133 110.293 72.44 109.507 72.44 108.52V86.88C72.4133 86.5067 72.32 86.24 72.16 86.08C72 85.8933 71.7333 85.8 71.36 85.8H68.48V84.52H76.04L89.92 106.84V89C89.92 88.0133 89.6933 87.24 89.24 86.68C88.7867 86.0933 88.1867 85.8 87.44 85.8H86V84.52H95.52V85.8H94.08C93.3333 85.8 92.72 86.0933 92.24 86.68C91.76 87.24 91.52 88.0133 91.52 89V113.72H89.92L74.2 88.88Z" fill="white"/>
<path id="S" d="M99.7894 132.732C98.6697 132.756 97.5582 132.539 96.455 132.082C95.3779 131.598 94.4333 131.071 93.6211 130.502C92.4833 129.672 91.8078 129.26 91.5945 129.264C91.0613 129.275 90.7268 129.856 90.591 131.006L90.4648 132.609L89.545 132.628L88.9987 119.997L89.9585 119.977C90.1601 121.946 90.7465 123.828 91.7178 125.621C92.7152 127.387 93.9323 128.815 95.3689 129.905C96.8049 130.968 98.2695 131.484 99.7625 131.453C101.949 131.407 103.524 130.84 104.488 129.753C105.478 128.665 105.958 127.374 105.926 125.881C105.899 124.575 105.491 123.557 104.702 122.827C103.94 122.096 102.819 121.453 101.34 120.897L95.2104 118.586C93.0862 117.777 91.5035 116.717 90.4623 115.405C89.4472 114.066 88.9197 112.45 88.8798 110.557C88.8259 107.998 89.5325 106.089 90.9997 104.831C92.4668 103.573 94.3202 102.921 96.5597 102.874C98.3193 102.837 100.282 103.595 102.449 105.15C102.719 105.331 102.99 105.499 103.26 105.653C103.529 105.781 103.77 105.842 103.984 105.838C104.437 105.828 104.697 105.503 104.763 104.861L104.893 103.418L105.853 103.398L106.472 113.787L105.512 113.808C105.045 111.897 104.329 110.205 103.365 108.732C102.427 107.258 101.336 106.12 100.092 105.32C98.8482 104.519 97.5731 104.133 96.2667 104.16C94.7737 104.192 93.5577 104.711 92.6187 105.717C91.6791 106.697 91.2276 108.054 91.2641 109.787C91.2894 110.987 91.6157 111.913 92.2429 112.567C92.8702 113.22 93.7887 113.775 94.9985 114.229L102.782 117.146C104.583 117.828 105.938 118.826 106.846 120.141C107.78 121.455 108.263 122.845 108.294 124.311C108.324 125.724 108.032 127.064 107.418 128.331C106.832 129.597 105.893 130.643 104.604 131.471C103.34 132.271 101.736 132.691 99.7894 132.732Z" fill="white"/>
</g>
</g>
<defs>
<clipPath id="clip0_1_52">
<rect x="11" y="11" width="158" height="202" rx="5" fill="white"/>
</clipPath>
</defs>
</svg>
